<mxfile host="app.diagrams.net" agent="Mozilla/5.0 (Macintosh; Intel Mac OS X 10_15_7) AppleWebKit/537.36 (KHTML, like Gecko) Chrome/129.0.0.0 Safari/537.36" scale="1" border="0" version="24.7.17" pages="3">
  <diagram name="PurposeMap" id="55Z-o9vdDvyJGHC078-m">
    <mxGraphModel grid="1" page="1" gridSize="10" guides="1" tooltips="1" connect="1" arrows="1" fold="1" pageScale="1" pageWidth="1169" pageHeight="827" math="0" shadow="0">
      <root>
        <mxCell id="0" />
        <mxCell id="1" parent="0" />
        <mxCell id="_kF7Wi1O3elvLmZt-izN-1" value="Improve patient satisfaction rates" style="whiteSpace=wrap;html=1;strokeColor=#FFFFFF;strokeWidth=2;fontSize=14;fillColor=#80ffb7;shadow=0;dashed=0;" vertex="1" parent="1">
          <mxGeometry x="40" y="140" width="130" height="80" as="geometry" />
        </mxCell>
        <mxCell id="_kF7Wi1O3elvLmZt-izN-2" value="&lt;font color=&quot;#262626&quot;&gt;Reduce waiting times&lt;/font&gt;" style="rounded=1;whiteSpace=wrap;html=1;strokeColor=#FFFFFF;strokeWidth=2;fontSize=14;fillColor=#80FFB7;fontColor=#FFFFFF;" vertex="1" parent="1">
          <mxGeometry x="140" y="260" width="130" height="80" as="geometry" />
        </mxCell>
        <mxCell id="_kF7Wi1O3elvLmZt-izN-3" value="&lt;font color=&quot;#262626&quot;&gt;Improve communication with patients&lt;/font&gt;" style="rounded=1;whiteSpace=wrap;html=1;strokeColor=#FFFFFF;strokeWidth=2;fontSize=14;fillColor=#80FFB7;fontColor=#FFFFFF;" vertex="1" parent="1">
          <mxGeometry x="140" y="380" width="130" height="80" as="geometry" />
        </mxCell>
        <mxCell id="_kF7Wi1O3elvLmZt-izN-4" value="&lt;font color=&quot;#262626&quot;&gt;Enhance patient comfort and amenities&lt;/font&gt;" style="rounded=1;whiteSpace=wrap;html=1;strokeColor=#FFFFFF;strokeWidth=2;fontSize=14;fillColor=#80FFB7;fontColor=#FFFFFF;" vertex="1" parent="1">
          <mxGeometry x="140" y="500" width="130" height="80" as="geometry" />
        </mxCell>
        <mxCell id="_kF7Wi1O3elvLmZt-izN-5" value="&lt;font color=&quot;#262626&quot;&gt;Increase the number of patients served&lt;/font&gt;" style="rounded=1;whiteSpace=wrap;html=1;strokeColor=#FFFFFF;strokeWidth=2;fontSize=14;fillColor=#80FFB7;fontColor=#FFFFFF;" vertex="1" parent="1">
          <mxGeometry x="320" y="140" width="130" height="80" as="geometry" />
        </mxCell>
        <mxCell id="_kF7Wi1O3elvLmZt-izN-6" value="&lt;font color=&quot;#262626&quot;&gt;Expand clinic hours&lt;/font&gt;" style="rounded=1;whiteSpace=wrap;html=1;strokeColor=#FFFFFF;strokeWidth=2;fontSize=14;fillColor=#80FFB7;fontColor=#FFFFFF;" vertex="1" parent="1">
          <mxGeometry x="420" y="260" width="130" height="80" as="geometry" />
        </mxCell>
        <mxCell id="_kF7Wi1O3elvLmZt-izN-7" value="&lt;font color=&quot;#262626&quot;&gt;Hire more staff&lt;/font&gt;" style="rounded=1;whiteSpace=wrap;html=1;strokeColor=#FFFFFF;strokeWidth=2;fontSize=14;fillColor=#80FFB7;fontColor=#FFFFFF;" vertex="1" parent="1">
          <mxGeometry x="420" y="380" width="130" height="80" as="geometry" />
        </mxCell>
        <mxCell id="_kF7Wi1O3elvLmZt-izN-8" value="&lt;font color=&quot;#262626&quot;&gt;Improve marketing and outreach&lt;/font&gt;" style="rounded=1;whiteSpace=wrap;html=1;strokeColor=#FFFFFF;strokeWidth=2;fontSize=14;fillColor=#80FFB7;fontColor=#FFFFFF;" vertex="1" parent="1">
          <mxGeometry x="420" y="500" width="130" height="80" as="geometry" />
        </mxCell>
        <mxCell id="_kF7Wi1O3elvLmZt-izN-9" value="&lt;font color=&quot;#262626&quot;&gt;Expand range of services offered&lt;/font&gt;" style="rounded=1;whiteSpace=wrap;html=1;strokeColor=#FFFFFF;strokeWidth=2;fontSize=14;fillColor=#80FFB7;fontColor=#FFFFFF;" vertex="1" parent="1">
          <mxGeometry x="600" y="140" width="130" height="80" as="geometry" />
        </mxCell>
        <mxCell id="_kF7Wi1O3elvLmZt-izN-10" value="&lt;font color=&quot;#262626&quot;&gt;Invest in new medical equipment and technology&lt;/font&gt;" style="rounded=1;whiteSpace=wrap;html=1;strokeColor=#FFFFFF;strokeWidth=2;fontSize=14;fillColor=#80FFB7;fontColor=#FFFFFF;" vertex="1" parent="1">
          <mxGeometry x="700" y="260" width="130" height="80" as="geometry" />
        </mxCell>
        <mxCell id="_kF7Wi1O3elvLmZt-izN-11" value="&lt;font color=&quot;#262626&quot;&gt;Hire specialists in various fields&lt;/font&gt;" style="rounded=1;whiteSpace=wrap;html=1;strokeColor=#FFFFFF;strokeWidth=2;fontSize=14;fillColor=#80FFB7;fontColor=#FFFFFF;" vertex="1" parent="1">
          <mxGeometry x="700" y="380" width="130" height="80" as="geometry" />
        </mxCell>
        <mxCell id="_kF7Wi1O3elvLmZt-izN-12" value="&lt;font color=&quot;#262626&quot;&gt;Offer telemedicine services&lt;/font&gt;" style="rounded=1;whiteSpace=wrap;html=1;strokeColor=#FFFFFF;strokeWidth=2;fontSize=14;fillColor=#80FFB7;fontColor=#FFFFFF;" vertex="1" parent="1">
          <mxGeometry x="700" y="500" width="130" height="80" as="geometry" />
        </mxCell>
        <mxCell id="_kF7Wi1O3elvLmZt-izN-13" value="&lt;font color=&quot;#262626&quot;&gt;Enhance efficiency of clinic operations&lt;/font&gt;" style="rounded=1;whiteSpace=wrap;html=1;strokeColor=#FFFFFF;strokeWidth=2;fontSize=14;fillColor=#80FFB7;fontColor=#FFFFFF;" vertex="1" parent="1">
          <mxGeometry x="880" y="140" width="130" height="80" as="geometry" />
        </mxCell>
        <mxCell id="_kF7Wi1O3elvLmZt-izN-14" value="&lt;font color=&quot;#262626&quot;&gt;Implement electronic health records system&lt;/font&gt;" style="rounded=1;whiteSpace=wrap;html=1;strokeColor=#FFFFFF;strokeWidth=2;fontSize=14;fillColor=#80FFB7;fontColor=#FFFFFF;" vertex="1" parent="1">
          <mxGeometry x="980" y="260" width="130" height="80" as="geometry" />
        </mxCell>
        <mxCell id="_kF7Wi1O3elvLmZt-izN-15" value="&lt;font color=&quot;#262626&quot;&gt;Improve scheduling and appointment system&lt;/font&gt;" style="rounded=1;whiteSpace=wrap;html=1;strokeColor=#FFFFFF;strokeWidth=2;fontSize=14;fillColor=#80FFB7;fontColor=#FFFFFF;" vertex="1" parent="1">
          <mxGeometry x="980" y="380" width="130" height="80" as="geometry" />
        </mxCell>
        <mxCell id="_kF7Wi1O3elvLmZt-izN-16" value="&lt;font color=&quot;#262626&quot;&gt;Train staff in efficient practices&lt;/font&gt;" style="rounded=1;whiteSpace=wrap;html=1;strokeColor=#FFFFFF;strokeWidth=2;fontSize=14;fillColor=#80FFB7;fontColor=#FFFFFF;" vertex="1" parent="1">
          <mxGeometry x="980" y="500" width="130" height="80" as="geometry" />
        </mxCell>
        <mxCell id="_kF7Wi1O3elvLmZt-izN-17" value="&lt;h1&gt;Clinic Management Purpose Map&lt;/h1&gt;" style="text;html=1;align=left;verticalAlign=middle;resizable=0;points=[];autosize=1;strokeColor=none;fillColor=none;" vertex="1" parent="1">
          <mxGeometry x="40" y="40" width="400" height="70" as="geometry" />
        </mxCell>
      </root>
    </mxGraphModel>
  </diagram>
  <diagram id="NwyY8B_b16K7sRNUijeQ" name="Context Diagram">
    <mxGraphModel grid="1" page="1" gridSize="10" guides="1" tooltips="1" connect="1" arrows="1" fold="1" pageScale="1" pageWidth="1169" pageHeight="827" math="0" shadow="0">
      <root>
        <mxCell id="0" />
        <mxCell id="1" parent="0" />
        <object placeholders="1" c4Name="Paitent" c4Type="Person" c4Description="Patient" label="&lt;font style=&quot;font-size: 16px&quot;&gt;&lt;b&gt;%c4Name%&lt;/b&gt;&lt;/font&gt;&lt;div&gt;[%c4Type%]&lt;/div&gt;&lt;br&gt;&lt;div&gt;&lt;font style=&quot;font-size: 11px&quot;&gt;&lt;font color=&quot;#cccccc&quot;&gt;%c4Description%&lt;/font&gt;&lt;/div&gt;" id="px6pekhtg6u_f0vzicpw-2">
          <mxCell style="html=1;fontSize=11;dashed=0;whiteSpace=wrap;fillColor=#6C6477;strokeColor=#4D4D4D;fontColor=#ffffff;shape=mxgraph.c4.person2;align=center;metaEdit=1;points=[[0.5,0,0],[1,0.5,0],[1,0.75,0],[0.75,1,0],[0.5,1,0],[0.25,1,0],[0,0.75,0],[0,0.5,0]];resizable=0;" vertex="1" parent="1">
            <mxGeometry x="70" y="310" width="200" height="180" as="geometry" />
          </mxCell>
        </object>
        <mxCell id="px6pekhtg6u_f0vzicpw-8" style="edgeStyle=orthogonalEdgeStyle;rounded=0;orthogonalLoop=1;jettySize=auto;html=1;startArrow=classic;startFill=1;" edge="1" parent="1" source="px6pekhtg6u_f0vzicpw-4" target="px6pekhtg6u_f0vzicpw-6">
          <mxGeometry relative="1" as="geometry" />
        </mxCell>
        <object placeholders="1" c4Name="Clinical Autonomous AI Platform" c4Type="Software System" c4Description="Clinical Autonomous AI Platform" label="&lt;font style=&quot;font-size: 16px&quot;&gt;&lt;b&gt;%c4Name%&lt;/b&gt;&lt;/font&gt;&lt;div&gt;[%c4Type%]&lt;/div&gt;&lt;br&gt;&lt;div&gt;&lt;font style=&quot;font-size: 11px&quot;&gt;&lt;font color=&quot;#cccccc&quot;&gt;%c4Description%&lt;/font&gt;&lt;/div&gt;" id="px6pekhtg6u_f0vzicpw-4">
          <mxCell style="rounded=1;whiteSpace=wrap;html=1;labelBackgroundColor=none;fillColor=#1061B0;fontColor=#ffffff;align=center;arcSize=10;strokeColor=#0D5091;metaEdit=1;resizable=0;points=[[0.25,0,0],[0.5,0,0],[0.75,0,0],[1,0.25,0],[1,0.5,0],[1,0.75,0],[0.75,1,0],[0.5,1,0],[0.25,1,0],[0,0.75,0],[0,0.5,0],[0,0.25,0]];" vertex="1" parent="1">
            <mxGeometry x="440" y="340" width="240" height="120" as="geometry" />
          </mxCell>
        </object>
        <object placeholders="1" c4Name="Health Insurance Provider " c4Type="Person" c4Description="Health Insurance Provider " label="&lt;font style=&quot;font-size: 16px&quot;&gt;&lt;b&gt;%c4Name%&lt;/b&gt;&lt;/font&gt;&lt;div&gt;[%c4Type%]&lt;/div&gt;&lt;br&gt;&lt;div&gt;&lt;font style=&quot;font-size: 11px&quot;&gt;&lt;font color=&quot;#cccccc&quot;&gt;%c4Description%&lt;/font&gt;&lt;/div&gt;" id="px6pekhtg6u_f0vzicpw-6">
          <mxCell style="html=1;fontSize=11;dashed=0;whiteSpace=wrap;fillColor=#6C6477;strokeColor=#4D4D4D;fontColor=#ffffff;shape=mxgraph.c4.person2;align=center;metaEdit=1;points=[[0.5,0,0],[1,0.5,0],[1,0.75,0],[0.75,1,0],[0.5,1,0],[0.25,1,0],[0,0.75,0],[0,0.5,0]];resizable=0;" vertex="1" parent="1">
            <mxGeometry x="840" y="310" width="200" height="180" as="geometry" />
          </mxCell>
        </object>
        <object placeholders="1" c4Type="Relationship" id="px6pekhtg6u_f0vzicpw-7">
          <mxCell style="endArrow=blockThin;html=1;fontSize=10;fontColor=#404040;strokeWidth=1;endFill=1;strokeColor=#828282;elbow=vertical;metaEdit=1;endSize=14;startSize=14;jumpStyle=arc;jumpSize=16;rounded=0;edgeStyle=orthogonalEdgeStyle;" edge="1" parent="1" source="px6pekhtg6u_f0vzicpw-2" target="px6pekhtg6u_f0vzicpw-4">
            <mxGeometry width="240" relative="1" as="geometry">
              <mxPoint x="270" y="430" as="sourcePoint" />
              <mxPoint x="440" y="430" as="targetPoint" />
            </mxGeometry>
          </mxCell>
        </object>
      </root>
    </mxGraphModel>
  </diagram>
  <diagram id="JjEZ_EoIp4sSwI2A7MC6" name="Container Diagram">
    <mxGraphModel grid="1" page="1" gridSize="10" guides="1" tooltips="1" connect="1" arrows="1" fold="1" pageScale="1" pageWidth="1169" pageHeight="827" math="0" shadow="0">
      <root>
        <mxCell id="0" />
        <mxCell id="1" parent="0" />
        <object placeholders="1" c4Name="Clinical Autonomous AI Platform" c4Type="SystemScopeBoundary" c4Application="Clinical Autonomous AI Platform" label="&lt;font style=&quot;font-size: 16px&quot;&gt;&lt;b&gt;&lt;div style=&quot;text-align: left&quot;&gt;%c4Name%&lt;/div&gt;&lt;/b&gt;&lt;/font&gt;&lt;div style=&quot;text-align: left&quot;&gt;[%c4Application%]&lt;/div&gt;" id="43a8oyMd25W8WIBrKsFm-1">
          <mxCell style="rounded=1;fontSize=11;whiteSpace=wrap;html=1;dashed=1;arcSize=20;fillColor=none;strokeColor=#666666;fontColor=#333333;labelBackgroundColor=none;align=left;verticalAlign=bottom;labelBorderColor=none;spacingTop=0;spacing=10;dashPattern=8 4;metaEdit=1;rotatable=0;perimeter=rectanglePerimeter;noLabel=0;labelPadding=0;allowArrows=0;connectable=0;expand=0;recursiveResize=0;editable=1;pointerEvents=0;absoluteArcSize=1;points=[[0.25,0,0],[0.5,0,0],[0.75,0,0],[1,0.25,0],[1,0.5,0],[1,0.75,0],[0.75,1,0],[0.5,1,0],[0.25,1,0],[0,0.75,0],[0,0.5,0],[0,0.25,0]];" vertex="1" parent="1">
            <mxGeometry x="250" y="40" width="980" height="970" as="geometry" />
          </mxCell>
        </object>
        <mxCell id="_tDm43H7-dWUPXjLIeM5-8" style="edgeStyle=orthogonalEdgeStyle;rounded=0;orthogonalLoop=1;jettySize=auto;html=1;" edge="1" parent="1" source="ZSLp-cJ4RlYx0kL_C-Zu-1" target="_tDm43H7-dWUPXjLIeM5-3">
          <mxGeometry relative="1" as="geometry" />
        </mxCell>
        <object placeholders="1" c4Name="Paitent" c4Type="Person" c4Description="Patient" label="&lt;font style=&quot;font-size: 16px&quot;&gt;&lt;b&gt;%c4Name%&lt;/b&gt;&lt;/font&gt;&lt;div&gt;[%c4Type%]&lt;/div&gt;&lt;br&gt;&lt;div&gt;&lt;font style=&quot;font-size: 11px&quot;&gt;&lt;font color=&quot;#cccccc&quot;&gt;%c4Description%&lt;/font&gt;&lt;/div&gt;" id="ZSLp-cJ4RlYx0kL_C-Zu-1">
          <mxCell style="html=1;fontSize=11;dashed=0;whiteSpace=wrap;fillColor=#6C6477;strokeColor=#4D4D4D;fontColor=#ffffff;shape=mxgraph.c4.person2;align=center;metaEdit=1;points=[[0.5,0,0],[1,0.5,0],[1,0.75,0],[0.75,1,0],[0.5,1,0],[0.25,1,0],[0,0.75,0],[0,0.5,0]];resizable=0;" vertex="1" parent="1">
            <mxGeometry x="-10" y="80" width="200" height="180" as="geometry" />
          </mxCell>
        </object>
        <object placeholders="1" c4Name="Health Insurance Provider " c4Type="Person" c4Description="Health Insurance Provider " label="&lt;font style=&quot;font-size: 16px&quot;&gt;&lt;b&gt;%c4Name%&lt;/b&gt;&lt;/font&gt;&lt;div&gt;[%c4Type%]&lt;/div&gt;&lt;br&gt;&lt;div&gt;&lt;font style=&quot;font-size: 11px&quot;&gt;&lt;font color=&quot;#cccccc&quot;&gt;%c4Description%&lt;/font&gt;&lt;/div&gt;" id="_Ox9qRBIB4vAu8WLpzmU-1">
          <mxCell style="html=1;fontSize=11;dashed=0;whiteSpace=wrap;fillColor=#6C6477;strokeColor=#4D4D4D;fontColor=#ffffff;shape=mxgraph.c4.person2;align=center;metaEdit=1;points=[[0.5,0,0],[1,0.5,0],[1,0.75,0],[0.75,1,0],[0.5,1,0],[0.25,1,0],[0,0.75,0],[0,0.5,0]];resizable=0;" vertex="1" parent="1">
            <mxGeometry x="1300" y="545" width="200" height="180" as="geometry" />
          </mxCell>
        </object>
        <mxCell id="_tDm43H7-dWUPXjLIeM5-18" style="edgeStyle=orthogonalEdgeStyle;rounded=0;orthogonalLoop=1;jettySize=auto;html=1;startArrow=classic;startFill=1;" edge="1" parent="1" source="_tDm43H7-dWUPXjLIeM5-2" target="_tDm43H7-dWUPXjLIeM5-5">
          <mxGeometry relative="1" as="geometry" />
        </mxCell>
        <mxCell id="_tDm43H7-dWUPXjLIeM5-25" value="Appointment Maintenancet" style="edgeLabel;html=1;align=center;verticalAlign=middle;resizable=0;points=[];" connectable="0" vertex="1" parent="_tDm43H7-dWUPXjLIeM5-18">
          <mxGeometry x="-0.05" y="2" relative="1" as="geometry">
            <mxPoint as="offset" />
          </mxGeometry>
        </mxCell>
        <object placeholders="1" c4Name="Appointment Web" c4Type="Container" c4Technology="NodeJS" c4Description="Web Application" label="&lt;font style=&quot;font-size: 16px&quot;&gt;&lt;b&gt;%c4Name%&lt;/b&gt;&lt;/font&gt;&lt;div&gt;[%c4Type%:&amp;nbsp;%c4Technology%]&lt;/div&gt;&lt;br&gt;&lt;div&gt;&lt;font style=&quot;font-size: 11px&quot;&gt;&lt;font color=&quot;#E6E6E6&quot;&gt;%c4Description%&lt;/font&gt;&lt;/div&gt;" id="_tDm43H7-dWUPXjLIeM5-2">
          <mxCell style="shape=mxgraph.c4.webBrowserContainer2;whiteSpace=wrap;html=1;boundedLbl=1;rounded=0;labelBackgroundColor=none;strokeColor=#118ACD;fillColor=#23A2D9;strokeColor=#118ACD;strokeColor2=#0E7DAD;fontSize=12;fontColor=#ffffff;align=center;metaEdit=1;points=[[0.5,0,0],[1,0.25,0],[1,0.5,0],[1,0.75,0],[0.5,1,0],[0,0.75,0],[0,0.5,0],[0,0.25,0]];resizable=0;" vertex="1" parent="1">
            <mxGeometry x="540" y="310" width="240" height="160" as="geometry" />
          </mxCell>
        </object>
        <mxCell id="_tDm43H7-dWUPXjLIeM5-9" style="edgeStyle=orthogonalEdgeStyle;rounded=0;orthogonalLoop=1;jettySize=auto;html=1;" edge="1" parent="1" source="_tDm43H7-dWUPXjLIeM5-3" target="_tDm43H7-dWUPXjLIeM5-2">
          <mxGeometry relative="1" as="geometry">
            <Array as="points">
              <mxPoint x="620" y="170" />
            </Array>
          </mxGeometry>
        </mxCell>
        <object placeholders="1" c4Name="Receptionlist" c4Type="Person" c4Description="Receptionlist" label="&lt;font style=&quot;font-size: 16px&quot;&gt;&lt;b&gt;%c4Name%&lt;/b&gt;&lt;/font&gt;&lt;div&gt;[%c4Type%]&lt;/div&gt;&lt;br&gt;&lt;div&gt;&lt;font style=&quot;font-size: 11px&quot;&gt;&lt;font color=&quot;#cccccc&quot;&gt;%c4Description%&lt;/font&gt;&lt;/div&gt;" id="_tDm43H7-dWUPXjLIeM5-3">
          <mxCell style="html=1;fontSize=11;dashed=0;whiteSpace=wrap;fillColor=#083F75;strokeColor=#06315C;fontColor=#ffffff;shape=mxgraph.c4.person2;align=center;metaEdit=1;points=[[0.5,0,0],[1,0.5,0],[1,0.75,0],[0.75,1,0],[0.5,1,0],[0.25,1,0],[0,0.75,0],[0,0.5,0]];resizable=0;" vertex="1" parent="1">
            <mxGeometry x="320" y="80" width="200" height="180" as="geometry" />
          </mxCell>
        </object>
        <mxCell id="_tDm43H7-dWUPXjLIeM5-10" style="edgeStyle=orthogonalEdgeStyle;rounded=0;orthogonalLoop=1;jettySize=auto;html=1;" edge="1" parent="1" source="_tDm43H7-dWUPXjLIeM5-4" target="_tDm43H7-dWUPXjLIeM5-2">
          <mxGeometry relative="1" as="geometry">
            <Array as="points">
              <mxPoint x="700" y="170" />
            </Array>
          </mxGeometry>
        </mxCell>
        <object placeholders="1" c4Name="Physician" c4Type="Person" c4Description="Physician" label="&lt;font style=&quot;font-size: 16px&quot;&gt;&lt;b&gt;%c4Name%&lt;/b&gt;&lt;/font&gt;&lt;div&gt;[%c4Type%]&lt;/div&gt;&lt;br&gt;&lt;div&gt;&lt;font style=&quot;font-size: 11px&quot;&gt;&lt;font color=&quot;#cccccc&quot;&gt;%c4Description%&lt;/font&gt;&lt;/div&gt;" id="_tDm43H7-dWUPXjLIeM5-4">
          <mxCell style="html=1;fontSize=11;dashed=0;whiteSpace=wrap;fillColor=#083F75;strokeColor=#06315C;fontColor=#ffffff;shape=mxgraph.c4.person2;align=center;metaEdit=1;points=[[0.5,0,0],[1,0.5,0],[1,0.75,0],[0.75,1,0],[0.5,1,0],[0.25,1,0],[0,0.75,0],[0,0.5,0]];resizable=0;" vertex="1" parent="1">
            <mxGeometry x="800" y="80" width="200" height="180" as="geometry" />
          </mxCell>
        </object>
        <mxCell id="4TsPrPlDg0YhssHafmjM-2" style="edgeStyle=orthogonalEdgeStyle;rounded=0;orthogonalLoop=1;jettySize=auto;html=1;startArrow=classic;startFill=1;" edge="1" parent="1" source="_tDm43H7-dWUPXjLIeM5-5" target="_tDm43H7-dWUPXjLIeM5-6">
          <mxGeometry relative="1" as="geometry" />
        </mxCell>
        <mxCell id="4TsPrPlDg0YhssHafmjM-3" value="Check Eligibility&lt;div&gt;Request&lt;/div&gt;" style="edgeLabel;html=1;align=center;verticalAlign=middle;resizable=0;points=[];" connectable="0" vertex="1" parent="4TsPrPlDg0YhssHafmjM-2">
          <mxGeometry x="-0.1571" y="-1" relative="1" as="geometry">
            <mxPoint as="offset" />
          </mxGeometry>
        </mxCell>
        <object placeholders="1" c4Name="Appointment Module" c4Type="Container" c4Technology="FHIR, RESTful/JSON, Sprint Framework" c4Description="FHIR Module" label="&lt;font style=&quot;font-size: 16px&quot;&gt;&lt;b&gt;%c4Name%&lt;/b&gt;&lt;/font&gt;&lt;div&gt;[%c4Type%:&amp;nbsp;%c4Technology%]&lt;/div&gt;&lt;br&gt;&lt;div&gt;&lt;font style=&quot;font-size: 11px&quot;&gt;&lt;font color=&quot;#E6E6E6&quot;&gt;%c4Description%&lt;/font&gt;&lt;/div&gt;" id="_tDm43H7-dWUPXjLIeM5-5">
          <mxCell style="shape=hexagon;size=50;perimeter=hexagonPerimeter2;whiteSpace=wrap;html=1;fixedSize=1;rounded=1;labelBackgroundColor=none;fillColor=#23A2D9;fontSize=12;fontColor=#ffffff;align=center;strokeColor=#0E7DAD;metaEdit=1;points=[[0.5,0,0],[1,0.25,0],[1,0.5,0],[1,0.75,0],[0.5,1,0],[0,0.75,0],[0,0.5,0],[0,0.25,0]];resizable=0;" vertex="1" parent="1">
            <mxGeometry x="560" y="550" width="200" height="170" as="geometry" />
          </mxCell>
        </object>
        <mxCell id="_tDm43H7-dWUPXjLIeM5-7" style="edgeStyle=orthogonalEdgeStyle;rounded=0;orthogonalLoop=1;jettySize=auto;html=1;startArrow=classic;startFill=1;" edge="1" parent="1" source="_tDm43H7-dWUPXjLIeM5-6" target="_Ox9qRBIB4vAu8WLpzmU-1">
          <mxGeometry relative="1" as="geometry" />
        </mxCell>
        <mxCell id="_tDm43H7-dWUPXjLIeM5-23" value="Coverage Req &amp;amp;&lt;div&gt;Resp&lt;/div&gt;" style="edgeLabel;html=1;align=center;verticalAlign=middle;resizable=0;points=[];" connectable="0" vertex="1" parent="_tDm43H7-dWUPXjLIeM5-7">
          <mxGeometry x="-0.125" relative="1" as="geometry">
            <mxPoint as="offset" />
          </mxGeometry>
        </mxCell>
        <object placeholders="1" c4Name="FHIR Data Exchange Bus" c4Type="Container" c4Technology="Apache Kafka compatible" c4Description="FHIR Data Exchange Bus" label="&lt;font style=&quot;font-size: 16px&quot;&gt;&lt;b&gt;%c4Name%&lt;/b&gt;&lt;/font&gt;&lt;div&gt;[%c4Type%:&amp;nbsp;%c4Technology%]&lt;/div&gt;&lt;br&gt;&lt;div&gt;&lt;font style=&quot;font-size: 11px&quot;&gt;&lt;font color=&quot;#E6E6E6&quot;&gt;%c4Description%&lt;/font&gt;&lt;/div&gt;" id="_tDm43H7-dWUPXjLIeM5-6">
          <mxCell style="shape=cylinder3;size=15;direction=south;whiteSpace=wrap;html=1;boundedLbl=1;rounded=0;labelBackgroundColor=none;fillColor=#23A2D9;fontSize=12;fontColor=#ffffff;align=center;strokeColor=#0E7DAD;metaEdit=1;points=[[0.5,0,0],[1,0.25,0],[1,0.5,0],[1,0.75,0],[0.5,1,0],[0,0.75,0],[0,0.5,0],[0,0.25,0]];resizable=0;" vertex="1" parent="1">
            <mxGeometry x="900" y="575" width="240" height="120" as="geometry" />
          </mxCell>
        </object>
        <mxCell id="_tDm43H7-dWUPXjLIeM5-21" style="edgeStyle=orthogonalEdgeStyle;rounded=0;orthogonalLoop=1;jettySize=auto;html=1;startArrow=classic;startFill=1;" edge="1" parent="1" source="_tDm43H7-dWUPXjLIeM5-19" target="_tDm43H7-dWUPXjLIeM5-6">
          <mxGeometry relative="1" as="geometry" />
        </mxCell>
        <mxCell id="_tDm43H7-dWUPXjLIeM5-22" value="Check Eligibility" style="edgeLabel;html=1;align=center;verticalAlign=middle;resizable=0;points=[];" connectable="0" vertex="1" parent="_tDm43H7-dWUPXjLIeM5-21">
          <mxGeometry x="-0.1" y="-2" relative="1" as="geometry">
            <mxPoint as="offset" />
          </mxGeometry>
        </mxCell>
        <object placeholders="1" c4Name="Coverage Module" c4Type="Container" c4Technology="FHIR, RESTful/JSON, Sprint Framework" c4Description="FHIR Module" label="&lt;font style=&quot;font-size: 16px&quot;&gt;&lt;b&gt;%c4Name%&lt;/b&gt;&lt;/font&gt;&lt;div&gt;[%c4Type%:&amp;nbsp;%c4Technology%]&lt;/div&gt;&lt;br&gt;&lt;div&gt;&lt;font style=&quot;font-size: 11px&quot;&gt;&lt;font color=&quot;#E6E6E6&quot;&gt;%c4Description%&lt;/font&gt;&lt;/div&gt;" id="_tDm43H7-dWUPXjLIeM5-19">
          <mxCell style="shape=hexagon;size=50;perimeter=hexagonPerimeter2;whiteSpace=wrap;html=1;fixedSize=1;rounded=1;labelBackgroundColor=none;fillColor=#23A2D9;fontSize=12;fontColor=#ffffff;align=center;strokeColor=#0E7DAD;metaEdit=1;points=[[0.5,0,0],[1,0.25,0],[1,0.5,0],[1,0.75,0],[0.5,1,0],[0,0.75,0],[0,0.5,0],[0,0.25,0]];resizable=0;" vertex="1" parent="1">
            <mxGeometry x="920" y="790" width="200" height="170" as="geometry" />
          </mxCell>
        </object>
      </root>
    </mxGraphModel>
  </diagram>
</mxfile>
